<svg width="51" height="25" viewBox="0 0 51 25" fill="none" xmlns="http://www.w3.org/2000/svg">
<path d="M12.11 25L11.375 21.115H5.845L5.11 25H0.35L5.075 0.499998H12.32L16.8 25H12.11ZM8.54 5.05L7.175 13.205L6.405 17.37H10.78L9.975 13.205L8.61 5.05H8.54ZM23.5632 4.7V13.45H26.6782C27.9615 12.4 28.6032 10.86 28.6032 8.83C28.6032 7.96667 28.4282 7.15 28.0782 6.38C27.7515 5.61 27.3549 5.05 26.8882 4.7H23.5632ZM18.8382 25V0.499998H28.3232C29.9099 1.2 31.1582 2.27333 32.0682 3.72C33.0015 5.16667 33.4682 6.85833 33.4682 8.795C33.4682 10.7083 32.9899 12.4817 32.0332 14.115C31.0765 15.7483 29.6649 16.9033 27.7982 17.58H23.5632V25H18.8382ZM40.7556 4.7V13.45H43.8706C45.1539 12.4 45.7956 10.86 45.7956 8.83C45.7956 7.96667 45.6206 7.15 45.2706 6.38C44.9439 5.61 44.5473 5.05 44.0806 4.7H40.7556ZM36.0306 25V0.499998H45.5156C47.1023 1.2 48.3506 2.27333 49.2606 3.72C50.1939 5.16667 50.6606 6.85833 50.6606 8.795C50.6606 10.7083 50.1823 12.4817 49.2256 14.115C48.2689 15.7483 46.8573 16.9033 44.9906 17.58H40.7556V25H36.0306Z" fill="#FFF200"/>
</svg>
