<svg width="155" height="25" viewBox="0 0 155 25" fill="none" xmlns="http://www.w3.org/2000/svg">
<path d="M0.68 25V0.499998H13.455V4.7H5.475V10.825H12.405V14.885H5.475V25H0.68ZM15.4798 25V0.499998H20.2748V25H15.4798ZM27.6038 4.7H22.3188V0.499998H37.6488V4.7H32.3638V25H27.6038V4.7ZM50.599 25L44.054 11.455L43.879 11.525L44.089 15.655V25H39.679V0.499998H43.214L49.654 14.57L49.829 14.5L49.444 10.195V0.499998H53.854V25H50.599ZM57.2132 25V0.499998H69.7782V4.7H62.0082V10.545H68.9382V14.605H62.0082V20.94H69.9182V25H57.2132ZM74.5264 0.499998H82.9264V4.7H76.2064L76.1014 4.91L81.7014 15.13C82.8448 17.1833 83.4164 18.7467 83.4164 19.82C83.4164 22.1767 82.6348 23.9033 81.0714 25H71.7964V20.94H79.0414L79.1464 20.73L72.8464 9.425C71.9364 7.79167 71.4814 6.46167 71.4814 5.435C71.4814 3.00833 72.4964 1.36333 74.5264 0.499998ZM88.0958 0.499998H96.4958V4.7H89.7758L89.6708 4.91L95.2708 15.13C96.4141 17.1833 96.9858 18.7467 96.9858 19.82C96.9858 22.1767 96.2041 23.9033 94.6408 25H85.3658V20.94H92.6108L92.7158 20.73L86.4158 9.425C85.5058 7.79167 85.0508 6.46167 85.0508 5.435C85.0508 3.00833 86.0658 1.36333 88.0958 0.499998ZM115.461 25L114.726 21.115H109.196L108.461 25H103.701L108.426 0.499998H115.671L120.151 25H115.461ZM111.891 5.05L110.526 13.205L109.756 17.37H114.131L113.326 13.205L111.961 5.05H111.891ZM126.914 4.7V13.45H130.029C131.312 12.4 131.954 10.86 131.954 8.83C131.954 7.96667 131.779 7.15 131.429 6.38C131.102 5.61 130.705 5.05 130.239 4.7H126.914ZM122.189 25V0.499998H131.674C133.26 1.2 134.509 2.27333 135.419 3.72C136.352 5.16667 136.819 6.85833 136.819 8.795C136.819 10.7083 136.34 12.4817 135.384 14.115C134.427 15.7483 133.015 16.9033 131.149 17.58H126.914V25H122.189ZM144.106 4.7V13.45H147.221C148.505 12.4 149.146 10.86 149.146 8.83C149.146 7.96667 148.971 7.15 148.621 6.38C148.295 5.61 147.898 5.05 147.431 4.7H144.106ZM139.381 25V0.499998H148.866C150.453 1.2 151.701 2.27333 152.611 3.72C153.545 5.16667 154.011 6.85833 154.011 8.795C154.011 10.7083 153.533 12.4817 152.576 14.115C151.62 15.7483 150.208 16.9033 148.341 17.58H144.106V25H139.381Z" fill="black"/>
</svg>
